<svg width="24" height="24" viewBox="0 0 24 24" fill="none" xmlns="http://www.w3.org/2000/svg">
  <path d="M20 21.5V19.5C20 17.8431 18.6569 16.5 17 16.5H13M4 21.5V19.5C4 17.8431 5.34315 16.5 7 16.5H11M15 7.5C15 9.15685 13.6569 10.5 12 10.5C10.3431 10.5 9 9.15685 9 7.5C9 5.84315 10.3431 4.5 12 4.5C13.6569 4.5 15 5.84315 15 7.5ZM5 21.5H19C20.1046 21.5 21 20.6046 21 19.5V18.5C21 16.8431 19.6569 15.5 18 15.5H6C4.34315 15.5 3 16.8431 3 18.5V19.5C3 20.6046 3.89543 21.5 5 21.5Z" stroke="#959595" stroke-width="2"/>
</svg>
