<svg width="24" height="24" viewBox="0 0 24 24" fill="none" xmlns="http://www.w3.org/2000/svg">
  <path d="M7.5 14.5V17.5M12 12.5V17.5M16.5 10.5V17.5M5.2 20.5H18.8C19.9201 20.5 20.4802 20.5 20.908 20.282C21.2843 20.0903 21.5903 19.7843 21.782 19.408C22 18.9802 22 18.4201 22 17.3V7.7C22 6.57989 22 6.01984 21.782 5.59202C21.5903 5.21569 21.2843 4.90973 20.908 4.71799C20.4802 4.5 19.9201 4.5 18.8 4.5H5.2C4.0799 4.5 3.51984 4.5 3.09202 4.71799C2.71569 4.90973 2.40973 5.21569 2.21799 5.59202C2 6.01984 2 6.57989 2 7.7V17.3C2 18.4201 2 18.9802 2.21799 19.408C2.40973 19.7843 2.71569 20.0903 3.09202 20.282C3.51984 20.5 4.07989 20.5 5.2 20.5Z" stroke="#1E3A68" stroke-width="2"/>
</svg>
