<svg width="24" height="24" viewBox="0 0 24 24" fill="none" xmlns="http://www.w3.org/2000/svg">
  <path d="M12 9.5V13.5M12 17.5H12.01M7.8 21.5H16.2C17.8802 21.5 18.7202 21.5 19.362 21.173C19.9265 20.8854 20.3854 20.4265 20.673 19.862C21 19.2202 21 18.3802 21 16.7V7.3C21 5.61984 21 4.77976 20.673 4.13803C20.3854 3.57354 19.9265 3.1146 19.362 2.82698C18.7202 2.5 17.8802 2.5 16.2 2.5H7.8C6.11984 2.5 5.27976 2.5 4.63803 2.82698C4.07354 3.1146 3.6146 3.57354 3.32698 4.13803C3 4.77976 3 5.61984 3 7.3V16.7C3 18.3802 3 19.2202 3.32698 19.862C3.6146 20.4265 4.07354 20.8854 4.63803 21.173C5.27976 21.5 6.11984 21.5 7.8 21.5Z" stroke="#FAAD14" stroke-width="2"/>
</svg>
